<?xml version="1.0" encoding="utf-8"?>
<!-- Generator: Adobe Illustrator 18.1.1, SVG Export Plug-In . SVG Version: 6.00 Build 0)  -->
<svg version="1.1" id="Layer_1" xmlns="http://www.w3.org/2000/svg" xmlns:xlink="http://www.w3.org/1999/xlink" x="0px" y="0px"
	 viewBox="0 0 63.38 63.21" enable-background="new 0 0 63.38 63.21" xml:space="preserve">
<path fill="#7D7D7D" d="M35.06,26.6c0.94-1.48,2.07-2.74,3.44-3.77c2.33-1.76,4.97-2.68,7.88-2.88c2.48-0.17,4.92,0.04,7.31,0.74
	c4.18,1.22,6.85,4.02,8.24,8.1c0.65,1.92,1.07,3.9,1.18,5.93c0.14,2.43,0.25,4.86,0.26,7.29c0.03,6.82,0.01,13.63,0.01,20.45
	c0,0.75,0,0.75-0.74,0.75c-3.94,0-7.88,0-11.82,0c-0.73,0-0.73,0-0.73-0.75c0-7.44,0.01-14.88-0.02-22.31
	c-0.01-1.75-0.24-3.48-0.95-5.11c-0.97-2.23-2.72-3.29-5.1-3.42c-1.16-0.06-2.32,0-3.44,0.34c-2.38,0.74-3.69,2.46-4.35,4.77
	c-0.58,2-0.61,4.06-0.61,6.11c0,6.54,0,13.08,0,19.61c0,0.75,0,0.75-0.74,0.75c-3.96,0-7.91,0-11.87,0c-0.66,0-0.66,0-0.66-0.63
	c0-13.66,0-27.33-0.01-40.99c0-0.48,0.13-0.64,0.64-0.64c3.82,0.02,7.65,0.02,11.47,0c0.51,0,0.63,0.15,0.62,0.63
	C35.04,23.24,35.06,24.92,35.06,26.6"/>
<path fill="#7D7D7D" d="M1.04,42.04c0-6.8,0-13.6,0-20.39c0-0.71,0-0.71,0.73-0.71c3.97,0,7.94,0,11.91,0c0.65,0,0.65,0,0.65,0.65
	c0,13.66,0,27.32,0.01,40.98c0,0.48-0.12,0.64-0.63,0.64c-4.02-0.02-8.04-0.02-12.06,0c-0.51,0-0.62-0.14-0.62-0.63
	C1.04,55.73,1.04,48.89,1.04,42.04"/>
<path fill="#7D7D7D" d="M7.64,15.33C3.66,15.37-0.01,12.17,0,7.66C0.01,3.4,3.32-0.01,7.67,0c4.61,0.01,7.69,3.74,7.67,7.7
	C15.32,11.93,11.91,15.33,7.64,15.33"/>
</svg>
