<?xml version="1.0" encoding="utf-8"?>
<!-- Generator: Adobe Illustrator 18.1.1, SVG Export Plug-In . SVG Version: 6.00 Build 0)  -->
<svg version="1.1" id="Layer_1" xmlns="http://www.w3.org/2000/svg" xmlns:xlink="http://www.w3.org/1999/xlink" x="0px" y="0px"
	 viewBox="0 0 80.69 91.3" enable-background="new 0 0 80.69 91.3" xml:space="preserve">
<g>
	<g>
		<polygon fill="#FFFFFF" points="40.2,75.3 16,75.3 16,16 64.69,16 64.69,40.31 34.41,40.31 34.41,32.01 56.39,32.01 56.39,24.3 
			24.3,24.3 24.3,67 31.9,67 31.9,48.14 51.76,48.14 51.76,56.44 40.2,56.44 		"/>
	</g>
</g>
<path fill="#FFFFFF" d="M72.69,8v75.3H8V8H72.69 M80.69,0h-8H8H0v8v75.3v8h8h64.69h8v-8V8V0L80.69,0z"/>
<polygon fill="#FFFFFF" points="64.68,75.3 53.47,75.3 64.69,64.08 "/>
</svg>
