<?xml version="1.0" encoding="utf-8"?>
<!-- Generator: Adobe Illustrator 18.1.1, SVG Export Plug-In . SVG Version: 6.00 Build 0)  -->
<svg version="1.1" id="Layer_1" xmlns="http://www.w3.org/2000/svg" xmlns:xlink="http://www.w3.org/1999/xlink" x="0px" y="0px"
	 viewBox="0 0 73.39 59.68" enable-background="new 0 0 73.39 59.68" xml:space="preserve">
<g>
	<path fill="#7D7D7D" d="M49.47,0h0.32c0.11,0.05,0.22,0.05,0.32,0h2c0.49,0.07,0.98,0.07,1.46,0.12c0.83,0.09,1.62,0.34,2.39,0.61
		c1.81,0.64,3.43,1.62,4.88,2.87c0.27,0.23,0.51,0.49,0.76,0.75c0.17,0.17,0.35,0.21,0.58,0.16c2.76-0.58,5.38-1.55,7.87-2.86
		c0.28-0.15,0.57-0.3,0.84-0.47c0.13-0.08,0.27-0.15,0.42-0.05c0.17,0.12,0.11,0.29,0.06,0.44c-0.36,1.07-0.86,2.08-1.46,3.04
		c-1.12,1.78-2.56,3.24-4.27,4.45c-0.12,0.09-0.25,0.16-0.4,0.2c0,0,0.02-0.01,0.04-0.02c0.59-0.19,1.2-0.22,1.8-0.35
		c2-0.41,3.94-1.01,5.82-1.8c0.16-0.07,0.32-0.15,0.48,0v0.06c-0.26,0.79-0.83,1.37-1.32,2c-0.99,1.29-2.13,2.44-3.31,3.56
		c-0.74,0.7-1.52,1.36-2.35,1.95c-0.27,0.19-0.37,0.41-0.36,0.73c0.02,0.62,0,1.25,0.01,1.87c0.02,2.26-0.22,4.5-0.61,6.72
		c-0.39,2.28-0.97,4.51-1.72,6.7c-0.55,1.63-1.21,3.21-1.94,4.77c-1.08,2.3-2.37,4.48-3.81,6.57c-0.84,1.21-1.75,2.36-2.71,3.48
		c-0.69,0.81-1.41,1.59-2.17,2.34c-2.59,2.55-5.44,4.76-8.61,6.55c-2.35,1.33-4.81,2.43-7.38,3.27c-2.48,0.81-5.01,1.39-7.59,1.74
		c-1.04,0.15-2.09,0.18-3.14,0.23c-0.41,0.02-0.81,0.03-1.22,0.03H24.3h-2.39h-0.52h-0.33c-2.66,0.03-5.27-0.35-7.86-0.96
		c-3.68-0.87-7.17-2.22-10.51-3.99c-0.8-0.42-1.57-0.88-2.33-1.36C0.21,53.28,0.04,53.21,0,53.02c0-0.22,0.18-0.23,0.32-0.22
		c0.74,0.07,1.48,0.1,2.22,0.14c0.69,0.04,1.37,0.05,2.06,0c0.67-0.05,1.35-0.08,2.02-0.14c1.53-0.14,3.04-0.43,4.53-0.81
		c1.81-0.46,3.55-1.1,5.23-1.89c1.81-0.85,3.5-1.87,5.11-3.05c0.08-0.06,0.17-0.1,0.21-0.21c-1.07-0.1-2.12-0.24-3.14-0.52
		c-2.2-0.61-4.17-1.63-5.9-3.12c-1.62-1.4-2.92-3.05-3.86-4.98c-0.25-0.5-0.45-1.02-0.64-1.55C8,36.25,8.17,36.04,8.62,36.12
		c0.76,0.14,1.54,0.2,2.31,0.21c0.97,0.01,1.95-0.09,2.91-0.28c0.19-0.04,0.38-0.09,0.48-0.08c-0.67-0.13-1.38-0.4-2.09-0.67
		c-2.22-0.87-4.08-2.24-5.65-4c-2.1-2.34-3.31-5.09-3.73-8.2c-0.07-0.54-0.1-1.09-0.08-1.64c0.02-0.53,0.17-0.63,0.63-0.39
		c0.97,0.5,1.98,0.89,3.03,1.17c0.85,0.23,1.72,0.36,2.66,0.45c-0.28-0.3-0.57-0.49-0.83-0.71c-1.3-1.13-2.42-2.41-3.29-3.89
		c-1.17-1.98-1.85-4.13-2.05-6.42c-0.22-2.49,0.15-4.9,1.12-7.21c0.2-0.48,0.43-0.94,0.67-1.39c0.22-0.43,0.44-0.44,0.75-0.08
		c0.86,1.04,1.77,2.05,2.73,3c2.1,2.07,4.38,3.93,6.86,5.53c1.33,0.86,2.71,1.67,4.13,2.38c3.91,1.95,8.02,3.29,12.34,3.97
		c1.3,0.2,2.61,0.37,3.93,0.44c0.45,0.02,0.45,0.01,0.37-0.45c-0.41-2.43-0.31-4.83,0.41-7.2c0.64-2.11,1.69-3.98,3.15-5.64
		c2.18-2.47,4.89-4.05,8.09-4.8c0.57-0.13,1.17-0.13,1.76-0.17C49.3,0.03,49.39,0.06,49.47,0"/>
</g>
</svg>
