<?xml version="1.0" encoding="utf-8"?>
<!-- Generator: Adobe Illustrator 18.1.1, SVG Export Plug-In . SVG Version: 6.00 Build 0)  -->
<svg version="1.1" id="Layer_1" xmlns="http://www.w3.org/2000/svg" xmlns:xlink="http://www.w3.org/1999/xlink" x="0px" y="0px"
	 viewBox="0 0 460.37 59.3" enable-background="new 0 0 460.37 59.3" xml:space="preserve">
<g>
	<g>
		<polygon fill="#FFFFFF" points="185.43,59.3 161.23,59.3 161.23,0 209.92,0 209.92,24.31 179.64,24.31 179.64,16.01 201.62,16.01 
			201.62,8.3 169.53,8.3 169.53,51 177.13,51 177.13,32.14 196.99,32.14 196.99,40.44 185.43,40.44 		"/>
	</g>
</g>
<g>
	<g>
		<polygon fill="#FFFFFF" points="394.84,59.3 377.78,59.3 377.78,51 386.54,51 386.54,8.3 377.93,8.3 377.93,42.07 351.81,8.3 
			345.58,8.3 345.58,51 353.18,51 353.18,40.89 361.48,40.89 361.48,59.3 337.28,59.3 337.28,0 355.89,0 369.63,17.78 369.63,0 
			394.84,0 		"/>
	</g>
</g>
<g>
	<g>
		<polygon fill="#FFFFFF" points="437.51,59.3 420.08,59.3 420.08,26.4 404.1,26.4 404.1,0 460.37,0 460.37,26.4 437.51,26.4 
			437.51,18.1 452.07,18.1 452.07,8.3 412.4,8.3 412.4,18.1 428.39,18.1 428.39,51 437.51,51 		"/>
	</g>
</g>
<polygon fill="#FFFFFF" points="235.08,51 227.48,51 227.48,8.3 259.76,8.3 259.76,28.28 250.7,37.95 260.82,58.57 270.07,58.57 
	260.67,39.44 268.06,31.57 268.06,0 219.18,0 219.18,59.3 243.38,59.3 243.38,39.02 235.08,39.02 "/>
<g>
	<g>
		<polygon fill="#FFFFFF" points="297.67,51 285.63,51 285.63,8.3 297.67,8.3 297.67,0 277.33,0 277.33,59.3 297.67,59.3 		"/>
		<polygon fill="#FFFFFF" points="307.67,0 307.67,8.3 319.72,8.3 319.72,51 307.67,51 307.67,59.3 328.02,59.3 328.02,0 		"/>
	</g>
</g>
<polygon fill="#FFFFFF" points="60.72,-1.41 0,59.3 37.69,59.3 60.72,36.27 "/>
<polygon fill="#FFFFFF" points="98.4,36.81 98.4,59.3 136.63,59.3 136.63,-1.41 "/>
<polygon fill="#FFFFFF" points="98.4,-1.41 60.72,36.27 60.72,59.3 75.91,59.3 98.4,36.81 "/>
<polygon opacity="0.6" fill="#FFFFFF" points="37.69,59.3 60.72,59.3 60.72,36.27 "/>
<polygon opacity="0.6" fill="#FFFFFF" points="75.91,59.3 98.4,59.3 98.4,36.81 "/>
</svg>
