<?xml version="1.0" encoding="utf-8"?>
<!-- Generator: Adobe Illustrator 18.1.1, SVG Export Plug-In . SVG Version: 6.00 Build 0)  -->
<svg version="1.1" id="Layer_1" xmlns="http://www.w3.org/2000/svg" xmlns:xlink="http://www.w3.org/1999/xlink" x="0px" y="0px"
	 viewBox="0 0 179 179" enable-background="new 0 0 179 179" xml:space="preserve">
<g>
	<defs>
		<path id="SVGID_1_" d="M89.5,155C53.33,155,24,125.67,24,89.5C24,53.33,53.33,24,89.5,24c36.17,0,65.5,29.33,65.5,65.5
			C155,125.67,125.67,155,89.5,155z M89.5,159c38.38,0,69.5-31.12,69.5-69.5S127.88,20,89.5,20S20,51.12,20,89.5S51.12,159,89.5,159
			z M0,0h179v179H0V0z"/>
	</defs>
	<clipPath id="SVGID_2_">
		<use xlink:href="#SVGID_1_"  overflow="visible"/>
	</clipPath>
	<g clip-path="url(#SVGID_2_)">
		<defs>
			<circle id="SVGID_3_" cx="89.5" cy="89.5" r="67.5"/>
		</defs>
		<clipPath id="SVGID_4_">
			<use xlink:href="#SVGID_3_"  overflow="visible"/>
		</clipPath>
		<g clip-path="url(#SVGID_4_)">
			<defs>
				<rect id="SVGID_5_" x="-811" y="-4774" width="1800" height="9840"/>
			</defs>
			<clipPath id="SVGID_6_">
				<use xlink:href="#SVGID_5_"  overflow="visible"/>
			</clipPath>
			
				<circle opacity="0.8" clip-path="url(#SVGID_6_)" fill-rule="evenodd" clip-rule="evenodd" fill="#F47D20" cx="89.5" cy="89.5" r="67.5"/>
		</g>
	</g>
</g>
<g>
	<defs>
		<circle id="SVGID_7_" cx="89.5" cy="89.5" r="67.5"/>
	</defs>
	<clipPath id="SVGID_8_">
		<use xlink:href="#SVGID_7_"  overflow="visible"/>
	</clipPath>
	<g clip-path="url(#SVGID_8_)">
		<defs>
			<rect id="SVGID_9_" x="-811" y="-4774" width="1800" height="9840"/>
		</defs>
		<clipPath id="SVGID_10_">
			<use xlink:href="#SVGID_9_"  overflow="visible"/>
		</clipPath>
		
			<circle clip-path="url(#SVGID_10_)" fill="none" stroke="#FFFFFF" stroke-width="8" stroke-miterlimit="10" cx="89.5" cy="89.5" r="67.5"/>
	</g>
</g>
<g>
	<defs>
		<polygon id="SVGID_11_" points="73,56 123.17,89 73,122 		"/>
	</defs>
	<clipPath id="SVGID_12_">
		<use xlink:href="#SVGID_11_"  overflow="visible"/>
	</clipPath>
	<g clip-path="url(#SVGID_12_)">
		<defs>
			<rect id="SVGID_13_" x="-811" y="-4774" width="1800" height="9840"/>
		</defs>
		<clipPath id="SVGID_14_">
			<use xlink:href="#SVGID_13_"  overflow="visible"/>
		</clipPath>
		<rect x="68" y="51" clip-path="url(#SVGID_14_)" fill="#FFFFFF" width="60.17" height="76"/>
	</g>
</g>
</svg>
